<svg xmlns="http://www.w3.org/2000/svg" class="icon" viewBox="0 0 1024 1024" width="200" height="200" t="1603701609066" p-id="3164" version="1.1"><path d="M 512 512 m -512 0 a 512 512 0 1 0 1024 0 a 512 512 0 1 0 -1024 0 Z" p-id="3165" /><path fill="#ffffff" d="M 724.4 676.6 c 32.3 -41.4 43.3 -94.2 30.4 -144.8 l -43.3 -169.3 c -8 -31.7 -21.5 -60.8 -40.1 -86.7 c -20.6 -28.9 -45.5 -51.3 -73.8 -66.6 c -27.5 -14.9 -56.9 -22.4 -87.2 -22.2 c -30.5 0.2 -59.8 8.2 -87.3 23.7 c -28.2 15.9 -52.9 38.9 -73.3 68.5 c -17.4 25.2 -30.1 53.3 -37.9 83.8 L 269 532.2 c -12.8 50.4 -1.7 103.2 30.5 144.6 c 14.9 19.2 33.2 34.6 53.9 46 l -38.3 38.4 c -12.8 12.9 -16.6 31.3 -9.6 48 c 7 16.8 23.5 27.8 42 27.8 h 328.8 c 18.5 0 35 -10.9 42 -27.8 c 6.9 -16.7 3.2 -35.2 -9.6 -48 l -38.4 -38.5 c 20.7 -11.4 39.2 -26.9 54.1 -46.1 Z m -40.1 109 c 3.9 3.9 3.1 8.1 2.2 10.3 c -0.6 1.5 -3.2 6.4 -10.1 6.4 H 347.6 c -6.8 0 -9.4 -5 -10.1 -6.4 c -0.9 -2.2 -1.8 -6.4 2.2 -10.3 l 41 -41.1 h 262.6 l 41 41.1 Z m -100.1 -75.7 H 439.8 c -44.7 0 -85.9 -19.8 -112.8 -54.4 c -25.6 -32.9 -34.4 -74.7 -24.3 -114.8 l 42.9 -169.2 c 6.7 -26.5 17.7 -50.9 32.7 -72.6 c 33.7 -48.7 81.9 -76.9 132.3 -77.3 h 1.1 c 49.8 0 97.6 27.1 131.4 74.3 c 16 22.4 27.7 47.7 34.7 75.1 L 721 540.4 c 10.2 40.1 1.4 82 -24.2 114.9 c -26.6 34.7 -67.8 54.6 -112.6 54.6 Z" p-id="3166" /><path fill="#ffffff" d="M 512 280.5 c -84.6 0 -153.5 68.8 -153.5 153.5 S 427.4 587.4 512 587.4 s 153.5 -68.8 153.5 -153.5 S 596.6 280.5 512 280.5 Z m 0 272.4 c -65.6 0 -118.9 -53.3 -118.9 -118.9 S 446.5 315.1 512 315.1 S 630.9 368.4 630.9 434 S 577.6 552.9 512 552.9 Z M 512 600.6 c -9.5 0 -17.3 7.8 -17.3 17.3 v 70 c 0 9.5 7.8 17.3 17.3 17.3 s 17.3 -7.8 17.3 -17.3 v -70 c 0 -9.5 -7.7 -17.3 -17.3 -17.3 Z" p-id="3167" /><path fill="#ffffff" d="M 512 369.8 c -29.7 0 -53.9 24.1 -53.9 53.9 c 0 29.7 24.1 53.9 53.9 53.9 c 29.7 0 53.9 -24.1 53.9 -53.9 c 0 -29.7 -24.2 -53.9 -53.9 -53.9 Z m 0 92.3 c -21.2 0 -38.4 -17.2 -38.4 -38.4 s 17.2 -38.4 38.4 -38.4 s 38.4 17.2 38.4 38.4 c 0.1 21.2 -17.1 38.4 -38.4 38.4 Z" p-id="3168" /></svg>